<svg width="197" height="55" viewBox="0 0 197 55" fill="none" xmlns="http://www.w3.org/2000/svg">
<path d="M25.4297 5.41992C27.7734 5.41992 29.8047 6.05469 31.5234 7.32422C33.2422 8.59375 34.1016 10.4004 34.1016 12.7441V29.0332C34.1016 33.9941 32.5879 37.8223 29.5605 40.5176C26.5332 43.1934 22.3438 44.5312 16.9922 44.5312C11.6602 44.5312 7.50977 43.2129 4.54102 40.5762C1.51367 37.9395 0 34.0918 0 29.0332V8.14453C2.30469 6.30859 4.9707 5.39062 7.99805 5.39062C10.5371 5.39062 12.5488 6.06445 14.0332 7.41211C15.5176 8.74023 16.2598 10.7617 16.2598 13.4766V30.5566C16.4746 30.7129 16.7188 30.791 16.9922 30.791C17.2852 30.791 17.4902 30.7227 17.6074 30.5859C17.7441 30.4297 17.8125 30.1465 17.8125 29.7363V13.4473C17.8125 12.2168 17.7539 11.2402 17.6367 10.5176C17.5195 9.79492 17.2852 9.07227 16.9336 8.34961C19.2773 6.39648 22.1094 5.41992 25.4297 5.41992ZM67.7344 29.2383C67.7344 30.6445 67.8906 31.7773 68.2031 32.6367C68.5156 33.4961 69.0625 34.1699 69.8438 34.6582C69.8633 34.7559 69.873 34.9414 69.873 35.2148V35.7422C69.873 38.4375 69.0918 40.5371 67.5293 42.041C65.9863 43.5254 63.9844 44.2676 61.5234 44.2676C59.082 44.2676 57.0996 43.5742 55.5762 42.1875C53.7988 40.6055 52.9102 38.2031 52.9102 34.9805C52.9102 33.6133 52.9688 32.4121 53.0859 31.377C53.2227 30.3223 53.3105 29.5703 53.3496 29.1211C53.4082 28.6719 53.4668 28.252 53.5254 27.8613C53.584 27.4707 53.6133 26.8945 53.6133 26.1328C53.6133 25.3711 53.5059 24.8242 53.291 24.4922C53.0957 24.1602 52.8125 23.9941 52.4414 23.9941C52.0898 23.9941 51.7773 24.0723 51.5039 24.2285L51.8848 29.0039C51.5332 30.9766 51.3574 33.0664 51.3574 35.2734C51.3574 37.4805 51.8555 39.4922 52.8516 41.3086C50.9375 43.2812 48.252 44.2676 44.7949 44.2676C42.8223 44.2676 41.1133 43.75 39.668 42.7148C37.9883 41.543 37.1484 39.9902 37.1484 38.0566V23.877C35.9961 22.2559 35.4199 20.2637 35.4199 17.9004C35.4199 15.5176 35.9961 13.457 37.1484 11.7188H42.3633C43.75 11.7188 44.9316 12.2363 45.9082 13.2715C45.0488 14.0723 44.6191 14.7363 44.6191 15.2637C44.6191 15.8691 44.9609 16.1719 45.6445 16.1719C46.5039 14.6875 47.8125 13.457 49.5703 12.4805C51.3477 11.5039 53.3594 11.0156 55.6055 11.0156C58.9844 11.0156 61.7285 11.8457 63.8379 13.5059C66.4941 15.5957 67.8223 18.8379 67.8223 23.2324L67.7344 29.2383ZM85.957 17.373V28.9746C85.957 31.8848 86.6602 33.7793 88.0664 34.6582C88.0859 34.7559 88.0957 34.9414 88.0957 35.2148V35.7422C88.0957 38.6133 87.3145 40.7715 85.752 42.2168C84.3066 43.584 82.373 44.2676 79.9512 44.2676C77.5488 44.2676 75.5664 43.584 74.0039 42.2168C72.0312 40.4785 71.0449 37.9395 71.0449 34.5996V15.5566C71.3965 15.3027 71.7773 15.0977 72.1875 14.9414C72.5977 14.7852 73.0273 14.5898 73.4766 14.3555C72.6367 13.9258 71.875 13.1836 71.1914 12.1289C70.5078 11.0547 70.166 9.80469 70.166 8.37891C70.166 5.91797 70.9766 3.90625 72.5977 2.34375C74.2188 0.78125 76.2012 0 78.5449 0C80.9082 0 82.8809 0.800781 84.4629 2.40234C86.0645 3.98438 86.8652 5.97656 86.8652 8.37891C86.8652 10.3125 86.2598 12.0117 85.0488 13.4766C83.8379 14.9219 82.3633 15.8301 80.625 16.2012C80.625 16.9434 80.9082 17.3145 81.4746 17.3145C82.4707 17.3145 83.4863 16.9238 84.5215 16.1426C85.3027 16.748 85.7812 17.1582 85.957 17.373Z" fill="black"/>
<path d="M121.055 44.2676C118.379 44.2676 116.279 43.8281 114.756 42.9492C113.115 42.0312 112.227 40.7324 112.09 39.0527L111.826 36.2988C113.623 35.8691 115.137 34.7559 116.367 32.959C116.699 32.4512 116.865 32.0117 116.865 31.6406C116.865 31.1328 116.611 30.8789 116.104 30.8789H116.016C115.996 30.8984 115.957 30.9082 115.898 30.9082C114.531 33.7793 112.314 35.2148 109.248 35.2148C107.686 35.2148 106.348 34.873 105.234 34.1895C104.141 33.5059 103.135 32.3242 102.217 30.6445H102.041C101.514 30.6445 101.25 30.8691 101.25 31.3184C101.25 31.6309 101.367 31.9824 101.602 32.373C102.383 33.6816 103.359 34.707 104.531 35.4492C105.449 36.0742 106.416 36.4453 107.432 36.5625L107.197 42.0996C106.025 42.8613 104.785 43.4082 103.477 43.7402C102.188 44.0918 100.342 44.2676 97.9395 44.2676C95.5566 44.2676 93.4277 43.7988 91.5527 42.8613C89.248 41.709 88.0957 40.1074 88.0957 38.0566C88.0957 35.498 88.6035 29.1797 89.6191 19.1016C90.166 13.8477 90.6055 10.1758 90.9375 8.08594C92.9492 6.28906 95.918 5.39062 99.8438 5.39062C102.695 5.39062 105.059 5.91797 106.934 6.97266L108.545 12.3633L107.52 16.6699C107.441 16.9629 107.402 17.2461 107.402 17.5195C107.402 18.2031 107.793 18.5547 108.574 18.5742L111.357 7.00195C112.158 6.57227 113.203 6.20117 114.492 5.88867C115.781 5.55664 117.188 5.39062 118.711 5.39062C121.562 5.39062 123.672 5.87891 125.039 6.85547C126.426 7.8125 127.246 9.43359 127.5 11.7188C127.559 12.1484 127.646 12.8613 127.764 13.8574C129.541 29.1309 130.43 38.125 130.43 40.8398C128.262 43.125 125.137 44.2676 121.055 44.2676ZM161.689 29.2383C161.689 30.6445 161.846 31.7773 162.158 32.6367C162.471 33.4961 163.018 34.1699 163.799 34.6582C163.818 34.7559 163.828 34.9414 163.828 35.2148V35.7422C163.828 38.5156 162.988 40.6738 161.309 42.2168C159.824 43.584 157.988 44.2676 155.801 44.2676C154.316 44.2676 152.959 43.916 151.729 43.2129C150.498 42.5098 149.619 41.4941 149.092 40.166C148.428 40.166 148.096 40.4883 148.096 41.1328C148.096 41.6797 148.438 42.2949 149.121 42.9785C147.852 43.8379 145.938 44.2676 143.379 44.2676C139.766 44.2676 136.875 43.291 134.707 41.3379C132.559 39.3652 131.484 36.6211 131.484 33.1055C131.484 29.5703 132.627 26.8359 134.912 24.9023C137.002 23.1641 139.707 22.2949 143.027 22.2949C144.16 22.2949 145.254 22.373 146.309 22.5293C147.012 22.666 147.393 22.7441 147.451 22.7637C147.51 22.5684 147.539 22.4023 147.539 22.2656C147.539 21.7578 147.109 21.416 146.25 21.2402C145.391 21.0645 144.268 20.9766 142.881 20.9766C139.932 20.9766 137.412 21.5723 135.322 22.7637C134.365 21.1426 133.887 19.0918 133.887 16.6113C133.887 15.2051 134.062 14.1602 134.414 13.4766C135.82 12.832 137.607 12.2656 139.775 11.7773C141.943 11.2695 144.229 11.0156 146.631 11.0156C151.592 11.0156 155.342 12.0996 157.881 14.2676C160.42 16.4355 161.689 19.5117 161.689 23.4961V29.2383ZM146.484 30.6738C145.664 30.6738 145.254 31.0449 145.254 31.7871C145.254 32.4902 145.732 32.8418 146.689 32.8418C147.354 32.8418 147.842 32.6855 148.154 32.373C148.467 32.041 148.623 31.4746 148.623 30.6738C148.623 30.6738 147.91 30.6738 146.484 30.6738ZM181.318 22.7344C181.318 22.0312 181.055 21.6797 180.527 21.6797C180.039 21.6797 179.795 21.9727 179.795 22.5586V25.5762C179.951 25.7129 180.186 25.7812 180.498 25.7812C180.811 25.7812 181.025 25.6641 181.143 25.4297C181.26 25.1953 181.318 24.7656 181.318 24.1406V22.7344ZM182.402 34.5996C181.152 34.5996 180.088 34.5117 179.209 34.3359C179.15 34.5117 179.121 34.6777 179.121 34.834C179.121 35.2637 179.424 35.5566 180.029 35.7129C180.654 35.8496 181.445 35.918 182.402 35.918C185.449 35.918 188.047 35.4688 190.195 34.5703C192.305 35.1172 193.945 36.3086 195.117 38.1445C196.074 39.6484 196.553 41.416 196.553 43.4473C196.553 47.0605 195.02 49.873 191.953 51.8848C188.887 53.8965 184.932 54.9023 180.088 54.9023C175.264 54.9023 171.533 54.043 168.896 52.3242C166.455 50.7617 165.234 48.7305 165.234 46.2305C165.234 45.2734 165.459 44.3555 165.908 43.4766C166.357 42.5781 166.875 41.9629 167.461 41.6309C168.438 42.4512 169.873 43.1152 171.768 43.623C173.682 44.1309 175.645 44.3848 177.656 44.3848C179.668 44.3848 180.957 44.3066 181.523 44.1504C182.109 43.9941 182.402 43.7207 182.402 43.3301C182.402 43.1348 182.344 42.9395 182.227 42.7441C181.25 42.959 180.029 43.0664 178.564 43.0664C174.795 43.0664 171.836 42.5293 169.688 41.4551C167.07 40.166 165.762 38.2227 165.762 35.625C165.762 34.6094 165.967 33.6719 166.377 32.8125C166.787 31.9336 167.393 31.2793 168.193 30.8496C167.119 30.1855 166.201 29.1797 165.439 27.832C164.697 26.4844 164.326 24.8242 164.326 22.8516C164.326 19.1016 165.732 16.1426 168.545 13.9746C171.357 11.8066 175.01 10.7227 179.502 10.7227C181.67 10.7227 183.76 11.084 185.771 11.8066V9.75586C186.924 9.30664 188.447 9.08203 190.342 9.08203C192.256 9.08203 193.711 9.4043 194.707 10.0488C195.918 10.8301 196.523 12.207 196.523 14.1797C196.523 15.2734 196.406 16.1523 196.172 16.8164C195.957 17.4805 195.635 18.1738 195.205 18.8965C195.713 20.1855 195.967 21.7871 195.967 23.7012C195.967 27.1582 194.736 29.8438 192.275 31.7578C189.834 33.6523 186.543 34.5996 182.402 34.5996Z" fill="#F26454"/>
</svg>
