<svg width="78" height="40" viewBox="0 0 78 40" fill="none" xmlns="http://www.w3.org/2000/svg">
<path d="M25.4297 0.0292969C27.7734 0.0292969 29.8047 0.664063 31.5234 1.93359C33.2422 3.20312 34.1016 5.00977 34.1016 7.35352V23.6426C34.1016 28.6035 32.5879 32.4316 29.5605 35.127C26.5332 37.8027 22.3438 39.1406 16.9922 39.1406C11.6602 39.1406 7.50977 37.8223 4.54102 35.1855C1.51367 32.5488 0 28.7012 0 23.6426V2.75391C2.30469 0.917969 4.9707 0 7.99805 0C10.5371 0 12.5488 0.673828 14.0332 2.02148C15.5176 3.34961 16.2598 5.37109 16.2598 8.08594V25.166C16.4746 25.3223 16.7188 25.4004 16.9922 25.4004C17.2852 25.4004 17.4902 25.332 17.6074 25.1953C17.7441 25.0391 17.8125 24.7559 17.8125 24.3457V8.05664C17.8125 6.82617 17.7539 5.84961 17.6367 5.12695C17.5195 4.4043 17.2852 3.68164 16.9336 2.95898C19.2773 1.00586 22.1094 0.0292969 25.4297 0.0292969Z" fill="white"/>
<path d="M68.2031 38.877C65.5273 38.877 63.4277 38.4375 61.9043 37.5586C60.2637 36.6406 59.375 35.3418 59.2383 33.6621L58.9746 30.9082C60.7715 30.4785 62.2852 29.3652 63.5156 27.5684C63.8477 27.0605 64.0137 26.6211 64.0137 26.25C64.0137 25.7422 63.7598 25.4883 63.252 25.4883H63.1641C63.1445 25.5078 63.1055 25.5176 63.0469 25.5176C61.6797 28.3887 59.4629 29.8242 56.3965 29.8242C54.834 29.8242 53.4961 29.4824 52.3828 28.7988C51.2891 28.1152 50.2832 26.9336 49.3652 25.2539H49.1895C48.6621 25.2539 48.3984 25.4785 48.3984 25.9277C48.3984 26.2402 48.5156 26.5918 48.75 26.9824C49.5312 28.291 50.5078 29.3164 51.6797 30.0586C52.5977 30.6836 53.5645 31.0547 54.5801 31.1719L54.3457 36.709C53.1738 37.4707 51.9336 38.0176 50.625 38.3496C49.3359 38.7012 47.4902 38.877 45.0879 38.877C42.7051 38.877 40.5762 38.4082 38.7012 37.4707C36.3965 36.3184 35.2441 34.7168 35.2441 32.666C35.2441 30.1074 35.752 23.7891 36.7676 13.7109C37.3145 8.45703 37.7539 4.78516 38.0859 2.69531C40.0977 0.898438 43.0664 0 46.9922 0C49.8438 0 52.207 0.527344 54.082 1.58203L55.6934 6.97266L54.668 11.2793C54.5898 11.5723 54.5508 11.8555 54.5508 12.1289C54.5508 12.8125 54.9414 13.1641 55.7227 13.1836L58.5059 1.61133C59.3066 1.18164 60.3516 0.810547 61.6406 0.498047C62.9297 0.166016 64.3359 0 65.8594 0C68.7109 0 70.8203 0.488281 72.1875 1.46484C73.5742 2.42188 74.3945 4.04297 74.6484 6.32812C74.707 6.75781 74.7949 7.4707 74.9121 8.4668C76.6895 23.7402 77.5781 32.7344 77.5781 35.4492C75.4102 37.7344 72.2852 38.877 68.2031 38.877Z" fill="#F26454"/>
</svg>
